# xmcd
#
# Track frame offsets:
#	150
#	20905
#	47375
#	69409
#	89187
#	111995
#	143015
#	165444
#	190275
#	211502
#
# Disc length: 3117 seconds
#
# Revision: 2830890938
# Processed by: cddbd v1.5.2PL0 Copyright (c) Steve Scherf et al.
# Submitted via: EZCDAudioConverter 8.0.2.1
#
DISCID=870c2b0a
DTITLE=Mỹ Tâm, Đàm Vĩnh Hưng - st. Nguyễn Nhất Huy. Vẫn Nợ Cuộc Đời
DYEAR=2004
DGENRE=
TTITLE0=Đàm Vĩnh Hưng - Hãy sống thật lòng
TTITLE1=Mỹ Tâm - Lời hứa chóng phai
TTITLE2=Đàm Vĩnh Hưng - Trên những niềm đau
TTITLE3=Mỹ Tâm - Xin đời cho có đôi
TTITLE4=Đàm Vĩnh Hưng - Thứ tha một lần
TTITLE5=Mỹ Tâm - Hát bên trời lãng quên
TTITLE6=Đàm Vĩnh Hưng - Ước mơ xa tầm tay
TTITLE7=Mỹ Tâm - Tình mẹ
TTITLE8=Đàm Vĩnh Hưng - Nghĩ về cha
TTITLE9=Mỹ Tâm - Vẫn Nợ Cuộc Đời
EXTD=
EXTT0=
EXTT1=
EXTT2=
EXTT3=
EXTT4=
EXTT5=
EXTT6=
EXTT7=
EXTT8=
EXTT9=
PLAYORDER=
